# xmcd
#
# Track frame offsets: 
#        182
#        18975
#        36560
#        56400
#        72932
#        91425
#        117190
#        134597
#        151725
#        167775
#        182475
#        199527
#
# Disc length: 2923 seconds
#
# Revision: 0
# Processed by: cddbd v1.5.2PL0 Copyright (c) Steve Scherf et al.
# Submitted via: ExactAudioCopy v0.99pb5
#
DISCID=9e0b690c
DTITLE=De Luxe Blues Band - Motorvating
DYEAR=1992
DGENRE=Blues
TTITLE0=I Got The Blues
TTITLE1=Danny Jumps One
TTITLE2=I Get So Weary
TTITLE3=Alimony Blues
TTITLE4=Shake Your Moneymaker
TTITLE5=Sunnyland
TTITLE6=I'll Change My Style
TTITLE7=The Sky Is Crying
TTITLE8=Southern Country Boy
TTITLE9=Bleeding Heart
TTITLE10=You Are My Best Poker Hand
TTITLE11=I Ain't Got You
EXTD=
EXTT0=
EXTT1=
EXTT2=
EXTT3=
EXTT4=
EXTT5=
EXTT6=
EXTT7=
EXTT8=
EXTT9=
EXTT10=
EXTT11=
PLAYORDER=
